<svg width="20" height="20" xmlns="http://www.w3.org/2000/svg"><path d="M10 3.5c2.764 0 5 2.053 5 4.592 0 .784-.255 1.674-.724 2.653-.411.857-.977 1.761-1.659 2.689a28.681 28.681 0 01-2.352 2.797L10 16.5l-.265-.27a7.762 7.762 0 01-.205-.214 28.681 28.681 0 01-2.147-2.582c-.682-.928-1.248-1.832-1.659-2.689C5.254 9.766 5 8.876 5 8.092 5 5.553 7.236 3.5 10 3.5zm0 2.6c-1.15 0-2.083.97-2.083 2.167 0 1.196.933 2.166 2.083 2.166 1.15 0 2.083-.97 2.083-2.166S11.15 6.1 10 6.1z" stroke="#737373" stroke-width="1.5" fill="none"/></svg>