<svg xmlns="http://www.w3.org/2000/svg" width="24" height="24" viewBox="0 0 24 24">
    <g fill="none" fill-rule="evenodd">
        <path d="M0 0H24V24H0z"/>
        <g fill-rule="nonzero">
            <path stroke="#B5B5B5" stroke-linejoin="round" stroke-width="1.5" d="M2.124 14.816l.785-3.328C1.428 10.331.5 8.675.5 6.836.5 3.336 3.858.5 8 .5c4.142 0 7.5 2.837 7.5 6.336S12.142 13.17 8 13.17c-.871 0-1.708-.125-2.486-.356l-3.39 2z" transform="translate(4 4.5)"/>
            <path fill="#B5B5B5" d="M4.5 6c.552 0 1 .448 1 1s-.448 1-1 1-1-.448-1-1 .448-1 1-1zM8 6c.552 0 1 .448 1 1s-.448 1-1 1-1-.448-1-1 .448-1 1-1zm3.5 0c.552 0 1 .448 1 1s-.448 1-1 1-1-.448-1-1 .448-1 1-1z" transform="translate(4 4.5)"/>
        </g>
    </g>
</svg>
